<svg width="80" height="80" viewBox="0 0 80 80" fill="none" xmlns="http://www.w3.org/2000/svg">
<circle cx="40" cy="40" r="40" fill="#40D3E5"/>
<g clip-path="url(#clip0_1_1507)">
<path d="M56.2312 25.7692C51.205 20.7429 43.0271 20.743 38.0008 25.7692C34.5676 29.2024 33.3751 34.2619 34.8617 38.8521L20.3444 53.3696C20.1246 53.5893 20.001 53.8868 20.001 54.1981V60.8277C20.001 61.4754 20.5251 61.9995 21.1729 61.9995H27.8024C28.1137 61.9995 28.4112 61.876 28.6309 61.6562L30.288 59.9979C30.5409 59.745 30.6645 59.3903 30.6233 59.0343L30.4173 57.2536L32.8847 57.0213C33.4455 56.9686 33.8883 56.5257 33.941 55.9649L34.1733 53.4976L35.954 53.7047C36.2847 53.7493 36.6178 53.6383 36.8684 53.4163C37.1179 53.1932 37.2609 52.875 37.2609 52.5409V50.3589H39.4033C39.7145 50.3589 40.0121 50.2353 40.2318 50.0156L43.237 47.0501C47.8261 48.5378 52.798 47.4352 56.2312 43.9996C61.2575 38.9735 61.2575 30.7954 56.2312 25.7692ZM52.916 34.0559C51.545 35.4269 49.3157 35.4269 47.9447 34.0559C46.5737 32.6849 46.5737 30.4556 47.9447 29.0846C49.3157 27.7135 51.545 27.7135 52.916 29.0846C54.287 30.4556 54.2869 32.6849 52.916 34.0559Z" fill="white"/>
</g>
<defs>
<clipPath id="clip0_1_1507">
<rect width="40" height="40" fill="white" transform="translate(20 22)"/>
</clipPath>
</defs>
</svg>
